<svg width="2345" height="2346" xmlns="http://www.w3.org/2000/svg" xml:space="preserve" overflow="hidden"><g transform="translate(-793 -65)"><path d="M796.5 458.175C796.5 242.963 970.963 68.4999 1186.17 68.4999L2744.83 68.4999C2960.04 68.4999 3134.5 242.963 3134.5 458.175L3134.5 2017.83C3134.5 2233.04 2960.04 2407.5 2744.83 2407.5L1186.17 2407.5C970.963 2407.5 796.5 2233.04 796.5 2017.83Z" stroke="#042433" stroke-width="6.875" stroke-miterlimit="8" fill-rule="evenodd"/><path d="M1743.5 575C2215.43 575 2598 992.495 2598 1507.5" stroke="#FFFFFF" stroke-width="161.562" stroke-linecap="round" stroke-miterlimit="8" fill="none" fill-rule="evenodd"/><path d="M1587.52 915C1959.5 915 2261.04 1244.07 2261.04 1650" stroke="#FFFFFF" stroke-width="161.562" stroke-linecap="round" stroke-miterlimit="8" fill="none" fill-rule="evenodd"/><path d="M1415.47 1277C1692.42 1277 1916.93 1522.12 1916.93 1824.5" stroke="#FFFFFF" stroke-width="161.562" stroke-linecap="round" stroke-miterlimit="8" fill="none" fill-rule="evenodd"/></g></svg>