<?xml version="1.0" encoding="UTF-8" standalone="no"?>
<svg
   xmlns:dc="http://purl.org/dc/elements/1.1/"
   xmlns:cc="http://creativecommons.org/ns#"
   xmlns:rdf="http://www.w3.org/1999/02/22-rdf-syntax-ns#"
   xmlns:svg="http://www.w3.org/2000/svg"
   xmlns="http://www.w3.org/2000/svg"
   viewBox="0 0 1073.3333 1073.3333"
   height="1073.3333"
   width="1073.3333"
   xml:space="preserve"
   id="svg2"
   version="1.1"><metadata
     id="metadata8"><rdf:RDF><cc:Work
         rdf:about=""><dc:format>image/svg+xml</dc:format><dc:type
           rdf:resource="http://purl.org/dc/dcmitype/StillImage" /><dc:title></dc:title></cc:Work></rdf:RDF></metadata><defs
     id="defs6" /><g
     transform="matrix(1.3333333,0,0,-1.3333333,205.291,1073.3333)"
     id="g10"><g
       transform="scale(0.1)"
       id="g12"><path
         id="path14"
         style="fill:#231f20;fill-opacity:1;fill-rule:evenodd;stroke:none"
         d="M 2485.32,58.6992 C 2483.13,55.4219 572.879,2926.1 375.52,3222.01 c -536.118,803.82 -279.5669,1541.88 0,2251.56 l 992.2,2518.66 791.85,-1707.73 c 168.28,58.07 483.22,57.67 651.5,0 l 791.85,1707.73 992.2,-2518.66 c 279.56,-709.68 536.11,-1447.74 0,-2251.56 L 2485.32,58.6992" /><path
         id="path16"
         style="fill:none;stroke:#231f20;stroke-width:2.16;stroke-linecap:butt;stroke-linejoin:miter;stroke-miterlimit:2.6131;stroke-dasharray:none;stroke-opacity:1"
         d="M 2485.32,58.6992 C 2483.13,55.4219 572.879,2926.1 375.52,3222.01 c -536.118,803.82 -279.5669,1541.88 0,2251.56 l 992.2,2518.66 791.85,-1707.73 c 168.28,58.07 483.22,57.67 651.5,0 l 791.85,1707.73 992.2,-2518.66 c 279.56,-709.68 536.11,-1447.74 0,-2251.56 z" /><path
         id="path18"
         style="fill:#ffffff;fill-opacity:1;fill-rule:evenodd;stroke:none"
         d="m 1700.48,4292.35 c 412.74,-465.97 561.41,-1012.51 330.95,-1216.65 -230.47,-204.14 -755.07,9.41 -1167.813,475.38 -412.738,465.97 -561.406,1012.51 -330.937,1216.65 230.468,204.14 755.06,-9.41 1167.8,-475.38" /><path
         id="path20"
         style="fill:none;stroke:#231f20;stroke-width:2.16;stroke-linecap:butt;stroke-linejoin:miter;stroke-miterlimit:2.6131;stroke-dasharray:none;stroke-opacity:1"
         d="m 1700.48,4292.35 c 412.74,-465.97 561.41,-1012.51 330.95,-1216.65 -230.47,-204.14 -755.07,9.41 -1167.813,475.38 -412.738,465.97 -561.406,1012.51 -330.937,1216.65 230.468,204.14 755.06,-9.41 1167.8,-475.38 z" /><path
         id="path22"
         style="fill:#ffffff;fill-opacity:1;fill-rule:evenodd;stroke:none"
         d="m 2619.71,2524.99 511.61,-887.76 c 79.39,-137.74 -132.28,-250.01 -206.92,-120.53 l -439.08,761.56 -439.67,-762.44 c -75.55,-131.02 -283.92,-9.32 -208.18,121.59 l 514.19,888.68 c 59.08,102.09 209.62,100.28 268.05,-1.1" /><path
         id="path24"
         style="fill:none;stroke:#231f20;stroke-width:2.16;stroke-linecap:butt;stroke-linejoin:miter;stroke-miterlimit:2.6131;stroke-dasharray:none;stroke-opacity:1"
         d="m 2619.71,2524.99 511.61,-887.76 c 79.39,-137.74 -132.28,-250.01 -206.92,-120.53 l -439.08,761.56 -439.67,-762.44 c -75.55,-131.02 -283.92,-9.32 -208.18,121.59 l 514.19,888.68 c 59.08,102.09 209.62,100.28 268.05,-1.1 z" /><path
         id="path26"
         style="fill:#ffffff;fill-opacity:1;fill-rule:evenodd;stroke:none"
         d="M 3270.14,4292.35 C 2857.4,3826.38 2708.73,3279.84 2939.2,3075.7 c 230.47,-204.14 755.07,9.41 1167.81,475.38 412.74,465.97 561.4,1012.51 330.94,1216.65 -230.47,204.14 -755.07,-9.41 -1167.81,-475.38" /><path
         id="path28"
         style="fill:none;stroke:#231f20;stroke-width:2.16;stroke-linecap:butt;stroke-linejoin:miter;stroke-miterlimit:2.6131;stroke-dasharray:none;stroke-opacity:1"
         d="M 3270.14,4292.35 C 2857.4,3826.38 2708.73,3279.84 2939.2,3075.7 c 230.47,-204.14 755.07,9.41 1167.81,475.38 412.74,465.97 561.4,1012.51 330.94,1216.65 -230.47,204.14 -755.07,-9.41 -1167.81,-475.38 z" /></g></g></svg>
