<svg width="2453" height="2406" xmlns="http://www.w3.org/2000/svg" xmlns:xlink="http://www.w3.org/1999/xlink" xml:space="preserve" overflow="hidden"><g transform="translate(-684 -35)"><path d="M687.5 438.34C687.5 217.514 866.514 38.5 1087.34 38.5L2733.66 38.5C2954.49 38.5 3133.5 217.514 3133.5 438.34L3133.5 2037.66C3133.5 2258.49 2954.49 2437.5 2733.66 2437.5L1087.34 2437.5C866.514 2437.5 687.5 2258.49 687.5 2037.66Z" stroke="#042433" stroke-width="6.875" stroke-miterlimit="8" fill-rule="evenodd"/><path d="M577.455-0.980699C576.933-1.76644 121.23 686.455 74.1487 757.397-53.7457 950.107 7.45605 1127.05 74.1487 1297.19L310.845 1901.02 499.746 1491.6C539.89 1505.53 615.021 1505.43 655.165 1491.6L844.066 1901.02 1080.76 1297.19C1147.45 1127.05 1208.65 950.107 1080.76 757.397L577.455-0.980699" fill="#FFFFFF" fill-rule="evenodd" transform="matrix(1 0 0 -1 1674 2110)"/><path d="M577.455-0.980699C576.933-1.76644 121.23 686.455 74.1487 757.397-53.7457 950.107 7.45605 1127.05 74.1487 1297.19L310.845 1901.02 499.746 1491.6C539.89 1505.53 615.021 1505.43 655.165 1491.6L844.066 1901.02 1080.76 1297.19C1147.45 1127.05 1208.65 950.107 1080.76 757.397Z" stroke="#231F20" stroke-width="0.664403" stroke-miterlimit="8" fill="none" fill-rule="evenodd" transform="matrix(1 0 0 -1 1674.5 2110.5)"/><path d="M304.73 309.452C403.354 197.684 438.878 66.5897 383.81 17.6245 328.739-31.3409 203.386 19.8816 104.761 131.65 6.13786 243.418-29.3866 374.512 25.6839 423.478 80.7542 472.443 206.105 421.22 304.73 309.452" fill-rule="evenodd" transform="matrix(1 0 0 -1 1760 1405)"/><path d="M304.73 309.452C403.354 197.684 438.878 66.5898 383.81 17.6246 328.739-31.341 203.386 19.8816 104.761 131.65 6.13786 243.419-29.3866 374.513 25.6839 423.478 80.7542 472.443 206.105 421.221 304.73 309.452Z" stroke="#231F20" stroke-width="0.664403" stroke-miterlimit="8" fill="none" fill-rule="evenodd" transform="matrix(1 0 0 -1 1760.5 1405.5)"/><path d="M189.517 255.22 311.283 42.2768C330.178 9.23784 279.799-17.6918 262.035 13.3659L157.531 196.038 52.8866 13.1548C34.9052-18.2722-14.6883 10.9193 3.33834 42.3201L125.719 255.483C139.78 279.971 175.61 279.537 189.517 255.22" fill-rule="evenodd" transform="matrix(1 0 0 -1 2094 1774)"/><path d="M189.517 255.22 311.283 42.2768C330.178 9.23784 279.799-17.6918 262.035 13.3659L157.531 196.038 52.8866 13.1548C34.9052-18.2722-14.6883 10.9193 3.33834 42.3201L125.719 255.483C139.78 279.971 175.61 279.537 189.517 255.22Z" stroke="#231F20" stroke-width="0.664403" stroke-miterlimit="8" fill="none" fill-rule="evenodd" transform="matrix(1 0 0 -1 2094.5 1774.5)"/><path d="M104.177 309.452C5.55322 197.684-29.9714 66.5897 25.0993 17.6245 80.17-31.3409 205.523 19.8816 304.146 131.65 402.771 243.418 438.293 374.512 383.225 423.478 328.154 472.443 202.801 421.22 104.177 309.452" fill-rule="evenodd" transform="matrix(1 0 0 -1 2334 1405)"/><path d="M104.177 309.452C5.55322 197.684-29.9714 66.5898 25.0993 17.6246 80.17-31.341 205.523 19.8816 304.146 131.65 402.771 243.419 438.293 374.513 383.225 423.478 328.154 472.443 202.801 421.221 104.177 309.452Z" stroke="#231F20" stroke-width="0.664403" stroke-miterlimit="8" fill="none" fill-rule="evenodd" transform="matrix(1 0 0 -1 2334.5 1405.5)"/><path d="M1370 1621.5C1602.24 1621.5 1790.5 1806.85 1790.5 2035.5" stroke="#FFFFFF" stroke-width="68.75" stroke-linecap="round" stroke-miterlimit="8" fill="none" fill-rule="evenodd"/><path d="M1251.5 1743.5C1484.01 1743.5 1672.5 1929.08 1672.5 2158" stroke="#FFFFFF" stroke-width="68.75" stroke-linecap="round" stroke-miterlimit="8" fill="none" fill-rule="evenodd"/><path d="M1133 1866.5C1365.24 1866.5 1553.5 2051.85 1553.5 2280.5" stroke="#FFFFFF" stroke-width="68.75" stroke-linecap="round" stroke-miterlimit="8" fill="none" fill-rule="evenodd"/></g></svg>